<?xml version="1.0" encoding="UTF-8"?>
<svg version="1.1" xmlns="http://www.w3.org/2000/svg" width="1024" height="1024">
<path d="M0 0 C5.75180151 0.00020829 11.50359836 -0.00535408 17.25539756 -0.01005757 C28.46019016 -0.01827002 39.6649775 -0.02110795 50.86977287 -0.02166995 C59.98660024 -0.02214901 69.10342592 -0.02422291 78.22025275 -0.02737057 C99.97138631 -0.03472567 121.72251858 -0.04089835 143.47365355 -0.04037201 C144.16509785 -0.04035644 144.85654214 -0.04034086 145.56893929 -0.04032481 C149.0717448 -0.04024173 152.57455031 -0.04014269 156.07735582 -0.0400401 C157.12047047 -0.04001018 157.12047047 -0.04001018 158.18465814 -0.03997966 C159.59093006 -0.03993922 160.99720197 -0.03989742 162.40347388 -0.03985427 C184.30886416 -0.03924079 206.21423899 -0.04677141 228.11962485 -0.06042683 C252.84613673 -0.07583532 277.57263838 -0.08437781 302.29915535 -0.08346361 C315.35015506 -0.08313324 328.40113728 -0.08581032 341.45213294 -0.09664166 C352.5504266 -0.10579524 363.64869482 -0.10788182 374.74699064 -0.10113224 C380.39339597 -0.09789327 386.03975263 -0.09771435 391.68615317 -0.10648549 C456.27488376 -0.20027651 456.27488376 -0.20027651 478.55468345 6.14538372 C479.89003811 6.46584257 481.22735607 6.77821764 482.5664022 7.08288372 C497.17234362 10.43227408 510.57091476 15.66220001 523.61718345 23.08288372 C524.21595298 23.41739543 524.81472251 23.75190715 525.43163657 24.09655559 C529.08941291 26.17583919 532.2963189 28.49695933 535.55468345 31.14538372 C536.36292563 31.62878215 537.17116782 32.11218059 538.0039022 32.61022747 C541.00808396 34.41825722 543.64670398 36.49726653 546.36718345 38.70788372 C547.83091392 39.88544231 547.83091392 39.88544231 549.3242147 41.08678997 C550.42829673 42.10579387 550.42829673 42.10579387 551.55468345 43.14538372 C551.55468345 43.80538372 551.55468345 44.46538372 551.55468345 45.14538372 C552.38999595 45.45475872 552.38999595 45.45475872 553.24218345 45.77038372 C555.84805581 47.31982134 557.41021471 49.2220205 559.2773397 51.58288372 C560.66336404 53.33846806 560.66336404 53.33846806 562.92968345 55.45788372 C574.79237744 67.60302281 585.77011471 84.856377 591.6601522 100.74694622 C592.24013395 102.30200646 592.86567077 103.84111029 593.5429647 105.35632122 C596.31811741 111.63523817 597.77941975 118.02947073 599.1601522 124.72546184 C599.31355063 125.46731731 599.46694907 126.20917278 599.62499595 126.97350872 C599.75664145 127.63254192 599.88828696 128.29157512 600.02392173 128.97057903 C600.52791718 131.22506741 600.52791718 131.22506741 601.48775536 133.62435901 C606.15733838 149.03469206 605.9935495 166.00460743 605.92890525 181.9661845 C605.93165471 184.05679387 605.93571431 186.14740185 605.9409489 188.23800647 C605.95141488 193.91088943 605.94348634 199.58361203 605.93219841 205.25648773 C605.92328091 211.40246327 605.93182152 217.54841951 605.93806052 223.69439495 C605.9469627 235.01398551 605.94242222 246.33351105 605.9308967 257.65309376 C605.92031921 268.11409 605.91582645 278.57506821 605.91719222 289.03606975 C605.91731827 290.08092864 605.91731827 290.08092864 605.91744686 291.14689578 C605.91779916 293.97521235 605.91818319 296.80352892 605.91861244 299.63184548 C605.92256871 326.11019368 605.90990124 352.58851005 605.88908587 379.06684914 C605.87071936 402.54030098 605.86490452 426.01372234 605.87035728 449.48718059 C605.87070371 450.99462791 605.87104981 452.50207523 605.87139557 454.00952256 C605.87165206 455.12745594 605.87165206 455.12745594 605.87191373 456.26797383 C605.87276741 460.02045559 605.87359119 463.77293735 605.87438273 467.52541912 C605.87453981 468.26588936 605.8746969 469.00635961 605.87485874 469.76926835 C605.87885764 489.44154403 605.87336131 509.11381682 605.86487144 528.78609073 C605.8639645 530.90535104 605.86305885 533.02461134 605.86215621 535.14387165 C605.8615551 536.54945397 605.86094648 537.95503629 605.8603303 539.36061861 C605.85612537 549.11963868 605.85552377 558.87865299 605.8574358 568.63767368 C605.85988905 581.22031874 605.85551255 593.80293068 605.84022579 606.38556993 C605.8330221 612.44413925 605.82887008 618.50266627 605.83346915 624.56123912 C605.83758793 630.12269596 605.83226168 635.68406598 605.81984308 641.24550974 C605.81694931 643.24185149 605.81729701 645.23820161 605.82148615 647.23454106 C605.8413156 657.64072973 605.54267853 667.94913765 604.66338992 678.32168376 C604.58592528 679.24243501 604.50846064 680.16318626 604.42864858 681.11183906 C603.63545496 689.65228885 602.44264277 698.04336554 599.55468345 706.14538372 C599.05293029 708.09798938 598.55174684 710.05075625 598.05932212 712.00573528 C591.46931834 737.59412703 578.73971094 760.45409479 561.2617147 780.17663372 C559.88531864 781.76405617 558.58227831 783.41491264 557.30468345 785.08288372 C554.15586803 788.92443852 550.15674011 791.83954974 546.27343345 794.89928997 C543.52434648 797.17044658 541.06802412 799.61943431 538.55468345 802.14538372 C536.58147292 803.51805191 534.57925193 804.84965989 532.55468345 806.14538372 C530.84776262 807.38502531 529.1505715 808.6362027 527.46093345 809.89928997 C524.93184278 811.55252751 522.26964349 812.8218407 519.55468345 814.14538372 C518.65749595 814.60557903 517.76030845 815.06577434 516.83593345 815.53991497 C505.98838556 821.07033615 495.40488953 826.14206449 483.3945272 828.50475872 C480.59722627 829.04445141 480.59722627 829.04445141 478.2773397 830.12585247 C474.29663801 831.6164739 470.25021289 832.10897506 466.05468345 832.70788372 C465.23226157 832.83356731 464.4098397 832.9592509 463.56249595 833.08874309 C449.58413746 835.14248653 435.68860604 835.29093205 421.59475303 835.27909648 C419.47565264 835.280967 417.3565526 835.28326867 415.2374531 835.28596181 C409.43941432 835.2920566 403.64139 835.29194895 397.84334874 835.29076743 C391.57995453 835.29056283 385.31656489 835.29608789 379.05317283 835.300825 C366.79024038 835.30911983 354.52731449 835.31189232 342.26437981 835.31243738 C332.29062978 835.31289778 322.31688131 835.31496058 312.34313178 835.318138 C309.46708079 835.31903562 306.5910298 835.31992544 303.71497881 835.32081288 C302.99987465 835.32103393 302.28477048 835.32125498 301.54799649 835.32148272 C281.44388776 835.32763356 261.33977956 835.33158364 241.23566985 835.33113945 C240.09966765 835.33111608 240.09966765 835.33111608 238.94071591 835.33109224 C235.10267691 835.33100914 231.26463792 835.3309101 227.42659892 835.33080753 C226.66442295 835.33078758 225.90224698 835.33076764 225.11697477 835.33074709 C223.57566883 835.33070665 222.03436289 835.33066485 220.49305696 835.3306217 C196.53117117 835.33000941 172.56929956 835.3375083 148.60741782 835.35119426 C121.65226913 835.36658369 94.69712974 835.37515873 67.74197638 835.37423104 C64.86278184 835.37415642 61.98358731 835.37410771 59.10439277 835.37407672 C58.3955255 835.37406507 57.68665824 835.37405342 56.95631015 835.37404141 C45.59063227 835.37401074 34.22496677 835.38037356 22.85929256 835.38900899 C11.41755486 835.39752183 -0.02415858 835.39827692 -11.46589892 835.39189967 C-17.65401911 835.38864729 -23.84209484 835.38853109 -30.03021073 835.39725292 C-35.71048739 835.40517612 -41.39068473 835.40362777 -47.07095958 835.39496879 C-49.11067098 835.39344648 -51.15038847 835.39520116 -53.19009267 835.40082886 C-74.4861104 835.45562873 -97.12016074 835.18696689 -117.44531655 828.14538372 C-120.17004113 827.27699254 -122.90176547 826.43114566 -125.63281655 825.58288372 C-133.08551926 823.26531615 -133.08551926 823.26531615 -136.44531655 822.14538372 C-136.44531655 821.48538372 -136.44531655 820.82538372 -136.44531655 820.14538372 C-137.22906655 820.08350872 -138.01281655 820.02163372 -138.82031655 819.95788372 C-150.10862456 817.42774571 -161.63981328 809.44137214 -170.44531655 802.14538372 C-171.80850015 801.02970012 -171.80850015 801.02970012 -173.1992228 799.89147747 C-175.07445024 798.35008746 -176.9494496 796.80841992 -178.8242228 795.26647747 C-180.43929116 793.95949964 -182.08802118 792.69152051 -183.7851603 791.49303997 C-184.60693765 790.82595012 -184.60693765 790.82595012 -185.44531655 790.14538372 C-185.44531655 789.48538372 -185.44531655 788.82538372 -185.44531655 788.14538372 C-186.10531655 788.14538372 -186.76531655 788.14538372 -187.44531655 788.14538372 C-187.44531655 787.48538372 -187.44531655 786.82538372 -187.44531655 786.14538372 C-188.10531655 786.14538372 -188.76531655 786.14538372 -189.44531655 786.14538372 C-191.0664103 784.53600872 -191.0664103 784.53600872 -192.88281655 782.39538372 C-193.47965249 781.69928997 -194.07648843 781.00319622 -194.6914103 780.28600872 C-199.44531655 774.48391378 -199.44531655 774.48391378 -199.44531655 772.14538372 C-200.43531655 771.81538372 -201.42531655 771.48538372 -202.44531655 771.14538372 C-211.21452431 760.87366373 -218.38774545 746.58774162 -223.44531655 734.14538372 C-223.8629728 733.15667278 -224.28062905 732.16796184 -224.71094155 731.14928997 C-227.69185731 723.81372319 -229.75915515 716.46397827 -231.5507853 708.77428997 C-232.36143759 705.2367751 -232.36143759 705.2367751 -233.46094155 702.25085247 C-234.75211907 698.17749484 -235.38273545 694.11550798 -236.00781655 689.89538372 C-236.19634194 688.73136028 -236.19634194 688.73136028 -236.38867593 687.54382122 C-238.7273776 672.01778077 -238.59299081 656.2021347 -238.57902932 640.54000652 C-238.58090208 638.52042354 -238.58320461 636.50084092 -238.58589464 634.48125887 C-238.59196158 628.98148656 -238.59188514 623.48172957 -238.59070027 617.98195469 C-238.59049496 612.03083381 -238.59602732 606.07971768 -238.60075784 600.12859905 C-238.60903663 588.48832518 -238.61182443 576.84805599 -238.61237022 565.20777945 C-238.61283125 555.73949709 -238.61489731 546.27121636 -238.61807084 536.80293453 C-238.6189685 534.06919996 -238.61985831 531.33546539 -238.62074572 528.60173082 C-238.62096677 527.92195738 -238.62118781 527.24218394 -238.62141556 526.5418113 C-238.62756238 507.44331138 -238.63151687 488.34481202 -238.63107228 469.24631107 C-238.6310567 468.52750307 -238.63104113 467.80869507 -238.63102507 467.06810502 C-238.63094198 463.42558185 -238.63084294 459.78305868 -238.63074037 456.14053552 C-238.63072042 455.41722594 -238.63070048 454.69391635 -238.63067993 453.9486883 C-238.63063949 452.48598286 -238.63059769 451.02327743 -238.63055454 449.560572 C-238.62994204 426.81295727 -238.6374466 404.06535746 -238.6511271 381.317747 C-238.66652105 355.71102623 -238.67509136 330.10431527 -238.67416388 304.49758959 C-238.67408926 301.76196889 -238.67404054 299.02634819 -238.67400956 296.2907275 C-238.67399791 295.61723892 -238.67398625 294.94375034 -238.67397425 294.24985302 C-238.6739455 284.12614109 -238.67923669 274.00244098 -238.68734193 263.87873256 C-238.69647832 252.35080808 -238.69859647 240.82290807 -238.69183251 229.29498152 C-238.68858324 223.42264337 -238.68845257 217.55035206 -238.69718575 211.67801845 C-238.79978164 137.9890827 -238.79978164 137.9890827 -231.44531655 124.14538372 C-230.92168256 122.07278006 -230.44658655 119.9875977 -230.00781655 117.89538372 C-228.86981747 112.74535724 -227.45130447 108.01706865 -225.44531655 103.14538372 C-224.78531655 103.14538372 -224.12531655 103.14538372 -223.44531655 103.14538372 C-223.38344155 102.36163372 -223.32156655 101.57788372 -223.25781655 100.77038372 C-220.01763115 86.31417192 -207.86634627 68.39799275 -197.44531655 58.14538372 C-196.39344155 56.78413372 -196.39344155 56.78413372 -195.32031655 55.39538372 C-194.70156655 54.65288372 -194.08281655 53.91038372 -193.44531655 53.14538372 C-192.78531655 53.14538372 -192.12531655 53.14538372 -191.44531655 53.14538372 C-191.19781655 52.56788372 -190.95031655 51.99038372 -190.69531655 51.39538372 C-189.26231667 48.81598392 -187.66106979 47.0841678 -185.44531655 45.14538372 C-184.78531655 45.14538372 -184.12531655 45.14538372 -183.44531655 45.14538372 C-183.23906655 44.56788372 -183.03281655 43.99038372 -182.82031655 43.39538372 C-180.9433197 40.32393432 -178.4521101 39.09095601 -175.44531655 37.14538372 C-174.71957437 36.3861259 -173.99383218 35.62686809 -173.2460978 34.84460247 C-169.9113797 31.63080859 -166.3732994 29.31594879 -162.44531655 26.89538372 C-161.74664468 26.44936809 -161.0479728 26.00335247 -160.32812905 25.54382122 C-156.73440912 23.30622201 -153.74850461 21.58242625 -149.44531655 21.14538372 C-149.44531655 20.48538372 -149.44531655 19.82538372 -149.44531655 19.14538372 C-145.53406417 17.527795 -141.61541838 15.92889346 -137.69531655 14.33288372 C-136.60348062 13.88106731 -135.51164468 13.4292509 -134.3867228 12.96374309 C-124.40899831 8.91951748 -114.48753116 6.42940622 -103.89844155 4.61413372 C-101.2356214 4.14806061 -101.2356214 4.14806061 -97.88281655 3.08288372 C-87.88583837 0.35643512 -77.10488989 0.83124249 -66.80533242 0.5919627 C-65.94052761 0.57101032 -65.07572279 0.55005795 -64.18471177 0.52847066 C-42.79105229 0.0193689 -21.39861376 -0.00486064 0 0 Z " fill="#387B65" transform="translate(328.44531655311584,91.85461628437042)"/>
<path d="M0 0 C1.87463192 -0.00573832 1.87463192 -0.00573832 3.78713518 -0.01159257 C7.24897804 -0.02187171 10.71071733 -0.01969099 14.17256868 -0.01541197 C17.90883969 -0.01294461 21.64508578 -0.02195901 25.38134766 -0.02944946 C32.69817765 -0.04219796 40.01497094 -0.04398999 47.33181017 -0.0416492 C53.27888471 -0.03986614 59.22594811 -0.04161542 65.17302132 -0.04587364 C66.01944786 -0.04646883 66.8658744 -0.04706402 67.73795022 -0.04767724 C69.4574629 -0.048889 71.17697558 -0.05010313 72.89648826 -0.05131962 C89.0214397 -0.06219563 105.14637023 -0.06003231 121.27132285 -0.05393478 C136.02285218 -0.04876491 150.77431549 -0.06002278 165.52583175 -0.07903299 C180.67387799 -0.09840454 195.82189298 -0.10666864 210.96995169 -0.10290974 C219.4739773 -0.10099674 227.9779467 -0.10349493 236.4819622 -0.11762428 C243.72105769 -0.1295303 250.96006236 -0.1309517 258.19915908 -0.11883412 C261.89218796 -0.11294008 265.58505067 -0.11186038 269.27806854 -0.12383652 C273.28227216 -0.13667087 277.28607931 -0.12624348 281.2902832 -0.11352539 C283.03950456 -0.12458682 283.03950456 -0.12458682 284.82406372 -0.13587171 C293.18705225 -0.07986846 298.85300463 1.06869141 305.13441467 6.94429016 C305.98600159 7.74076965 306.8375885 8.53724915 307.71498108 9.35786438 C313.45812486 14.8972374 319.11674158 20.5216417 324.75038147 26.17207336 C326.89875209 28.32582163 329.05244036 30.47414868 331.2066803 32.62202454 C332.59697511 34.01297995 333.98695978 35.40424544 335.37660217 36.79585266 C336.00906357 37.42628983 336.64152496 38.05672699 337.29315186 38.70626831 C340.29404617 41.72272431 343.18920388 44.77888558 345.95814514 48.01020813 C350.71711341 53.51212841 355.9021523 58.59833998 361.04847717 63.73335266 C362.14046533 64.8260163 363.23230517 65.91882819 364.32400513 67.01177979 C366.60090464 69.29014479 368.87957995 71.56671424 371.15956116 73.84199524 C374.06205784 76.73879536 376.96004049 79.64006321 379.85669613 82.54270267 C382.10698772 84.79663106 384.35968434 87.04814367 386.61308479 89.29896355 C387.6817847 90.36700279 388.74976017 91.4357675 389.81695366 92.50531197 C395.60664759 98.30496312 401.46638964 103.94657054 407.70863342 109.26069641 C413.95674101 114.96183162 421.05280556 121.6372833 422.70863342 130.26069641 C422.80024436 132.43169503 422.83417318 134.60534296 422.83447456 136.77827358 C422.835928 137.43435477 422.83738145 138.09043596 422.83887893 138.7663984 C422.8425409 140.97443603 422.83905147 143.18240472 422.83561707 145.39044189 C422.83676885 146.98602333 422.83835677 148.5816045 422.84034431 150.17718512 C422.84453078 154.57018243 422.84244987 158.96315811 422.83935809 163.35615551 C422.837101 168.09220028 422.84058547 172.82824126 422.84333801 177.56428528 C422.84779393 186.85261178 422.84681928 196.14093021 422.84392537 205.42925703 C422.84166725 212.99088966 422.84136061 220.55252003 422.84244919 228.11415291 C422.84260242 229.19040423 422.84275565 230.26665555 422.84291353 231.37552055 C422.84323327 233.5622152 422.84355748 235.74890986 422.84388612 237.93560452 C422.84674126 258.46913094 422.84345513 279.00265291 422.83808576 299.5361786 C422.83363357 317.10394004 422.83438044 334.67169486 422.83900452 352.23945618 C422.84437717 372.66061387 422.84644986 393.08176763 422.84339225 413.50292593 C422.84307373 415.68923255 422.84275936 417.87553916 422.84244919 420.06184578 C422.84229491 421.13735229 422.84214064 422.2128588 422.84198169 423.32095642 C422.84112339 430.84903191 422.84256485 438.37710488 422.84492874 445.90517998 C422.8477576 455.11665568 422.84692494 464.32812288 422.841648 473.53959762 C422.83904966 478.22766468 422.83793861 482.91571766 422.84129715 487.60378456 C422.84843905 498.82334084 422.81878697 510.04163839 422.70863342 521.26069641 C422.70223837 521.97774825 422.69584331 522.6948001 422.68925446 523.43358079 C422.64442724 528.15050027 422.55826503 532.86487117 422.45054626 537.58078003 C422.43014776 539.30533744 422.43014776 539.30533744 422.40933716 541.0647344 C422.10158427 551.49997359 419.09210021 560.65682763 411.70863342 568.26069641 C404.17087948 574.5774588 397.46803503 577.50337058 387.50893116 577.52355194 C386.81559294 577.52765721 386.12225473 577.53176248 385.40790626 577.53599215 C383.09131286 577.54727514 380.77495941 577.54442486 378.45834351 577.5415802 C376.77793312 577.54675075 375.09752518 577.55277798 373.41712064 577.559587 C368.80424887 577.57569518 364.19143939 577.57930436 359.57854283 577.58078194 C354.60154948 577.58448856 349.62458825 577.59958594 344.64761353 577.61305237 C333.76740849 577.64019656 322.88721821 577.65226469 312.00698495 577.66107368 C305.21181886 577.66660185 298.41665845 577.67507712 291.6214962 577.68408203 C272.80289346 577.70846352 253.98429526 577.72906351 235.16567707 577.73583221 C233.96165627 577.73627135 232.75763547 577.73671048 231.51712919 577.73716292 C230.31025263 577.73759947 229.10337606 577.73803603 227.85992748 577.73848581 C225.41439521 577.73937274 222.96886295 577.74026587 220.52333069 577.74116516 C218.7037338 577.74182945 218.7037338 577.74182945 216.84737738 577.74250716 C197.19115372 577.75040332 177.53507833 577.78531362 157.87891195 577.83188421 C137.69208496 577.87932558 117.50533236 577.90423653 97.31844872 577.90656805 C85.9866749 577.90840067 74.65509434 577.91988314 63.32337379 577.95620728 C53.67443907 577.98702859 44.02575735 577.9972389 34.37678275 577.98073107 C29.45568423 577.97292492 24.53509508 577.97474237 19.61405945 578.00284576 C15.1039329 578.02836654 10.59469731 578.02589336 6.08457162 578.00166434 C4.45805544 577.99775755 2.83147568 578.00387457 1.20504872 578.02135307 C-11.05535975 578.14470807 -20.46801465 575.90666509 -29.79136658 567.38569641 C-36.7773824 559.80419899 -38.41048498 552.38436421 -38.6015501 542.31021595 C-38.62188978 541.40711223 -38.64222945 540.5040085 -38.66318548 539.573538 C-38.72855649 536.57276314 -38.7862193 533.57190606 -38.84280396 530.57095337 C-38.87417503 529.00537487 -38.87417503 529.00537487 -38.90617987 527.40816853 C-39.36205261 504.4807808 -39.45436601 481.55644636 -39.46606839 458.62519658 C-39.4700761 452.82549988 -39.47964086 447.02581129 -39.48828125 441.22612 C-39.50771525 427.35014017 -39.5180491 413.47415995 -39.52700904 399.59817001 C-39.53053947 394.35426295 -39.53468189 389.11035645 -39.5388487 383.86644986 C-39.55724945 360.69077253 -39.5730327 337.51509527 -39.58074665 314.33941174 C-39.58122137 312.93750843 -39.58169726 311.53560512 -39.58217431 310.13370182 C-39.58241069 309.43867663 -39.58264706 308.74365143 -39.5828906 308.02756487 C-39.5840915 304.50770051 -39.58530707 300.98783615 -39.58653259 297.4679718 C-39.58677274 296.76953508 -39.58701289 296.07109837 -39.58726032 295.3514969 C-39.59519012 272.6001102 -39.61873178 249.84877499 -39.65108854 227.09741083 C-39.68538477 202.9378704 -39.70509443 178.77836041 -39.70839089 154.61879522 C-39.71055367 141.48579196 -39.71927359 128.3528653 -39.74485207 115.21988487 C-39.76652001 104.07176418 -39.77462703 92.92373887 -39.76488528 81.7755995 C-39.7603352 76.0930866 -39.76227018 70.41077082 -39.78164673 64.72828484 C-39.79923167 59.52675173 -39.79831883 54.32556033 -39.78274944 49.12402383 C-39.7803669 47.24437076 -39.78473029 45.36469429 -39.79657809 43.48507705 C-39.87916696 29.5171068 -38.71083224 19.97028118 -28.66246033 9.45991516 C-19.94321582 1.37270815 -11.61098431 -0.03755776 0 0 Z " fill="#F4F4F4" transform="translate(296.29136657714844,191.7393035888672)"/>
<path d="M0 0 C30.54053203 -0.04558844 61.0810563 -0.08100034 91.62161421 -0.10213066 C95.2241426 -0.10463218 98.82667093 -0.10722082 102.42919922 -0.10986328 C103.14642214 -0.1103879 103.86364507 -0.11091252 104.60260202 -0.11145304 C116.22807593 -0.12016454 127.85353013 -0.13593859 139.47899233 -0.15430559 C151.40063158 -0.17298396 163.32226049 -0.18411234 175.24391377 -0.18817699 C181.94313395 -0.19067914 188.64231298 -0.19671592 195.3415184 -0.21146011 C201.64017509 -0.22498138 207.93876838 -0.22923375 214.2374382 -0.22621536 C216.55545902 -0.22676798 218.87348185 -0.23077774 221.19149017 -0.23841095 C224.34379368 -0.24828689 227.49585431 -0.24599593 230.64816284 -0.24050903 C232.0401657 -0.24924756 232.0401657 -0.24924756 233.46028984 -0.25816262 C234.72028539 -0.25218947 234.72028539 -0.25218947 236.0057354 -0.24609566 C237.09819079 -0.24723482 237.09819079 -0.24723482 238.21271598 -0.24839699 C240 0 240 0 242 2 C242.24888897 4.77331638 242.24888897 4.77331638 242.24723816 8.38392639 C242.24965257 9.04646516 242.25206699 9.70900392 242.25455457 10.39161962 C242.26021116 12.62193708 242.25151392 14.8519706 242.24291992 17.08227539 C242.24399231 18.67698749 242.24593035 20.2716992 242.24867249 21.8664093 C242.2535305 26.2051009 242.24585356 30.54369007 242.23571944 34.88236928 C242.22695583 39.41428978 242.22869605 43.94620691 242.2290802 48.47813416 C242.22814288 56.08871177 242.21944921 63.69924957 242.20581055 71.30981445 C242.19007867 80.12124002 242.1848126 88.93262198 242.1855461 97.74406058 C242.18615548 106.2058848 242.18105863 114.66769475 242.17275429 123.12951469 C242.16921473 126.73756458 242.16739008 130.34560942 242.16686058 133.95366096 C242.16585938 138.19793875 242.15978113 142.44217962 242.14969444 146.68644524 C242.14676243 148.24859262 242.14554548 149.81074426 242.14612198 151.37289429 C242.14660926 153.49632177 242.14099093 155.61964432 242.13371277 157.74305725 C242.13203692 158.93418153 242.13036108 160.12530581 242.12863445 161.35252476 C242 164 242 164 241 165 C237.90514272 165.10027196 234.83252121 165.13437543 231.73718262 165.12698364 C230.75289764 165.12854363 229.76861266 165.13010362 228.75450087 165.13171089 C225.429418 165.13572548 222.10438014 165.13252947 218.77929688 165.12939453 C216.40641757 165.13074837 214.03353848 165.1325282 211.66065979 165.13470459 C205.86851355 165.13880492 200.07638181 165.13818565 194.28423512 165.13529195 C189.57888821 165.13303806 184.87354493 165.13272533 180.16819763 165.13381577 C179.49975979 165.133969 178.83132194 165.13412223 178.1426284 165.13428011 C176.78491866 165.13459982 175.42720893 165.13492403 174.06949919 165.1352527 C161.32354237 165.1381076 148.57759273 165.13482031 135.83163708 165.12945233 C124.88335993 165.12498428 113.93509337 165.12576021 102.98681641 165.13037109 C90.28799595 165.13571667 77.58918178 165.13783291 64.89036036 165.13475883 C63.53750769 165.13444026 62.18465503 165.13412589 60.83180237 165.13381577 C60.16608749 165.13366149 59.50037262 165.13350721 58.81448457 165.13334826 C54.11211558 165.13248306 49.40975057 165.13394606 44.7073822 165.13629532 C38.38410142 165.13917274 32.06084077 165.13720073 25.73756218 165.13140106 C23.40944896 165.13007277 21.08133407 165.13046875 18.75322151 165.13266373 C15.58973019 165.13537252 12.42630446 165.13199744 9.26281738 165.12698364 C8.3286938 165.12921436 7.39457023 165.13144509 6.43213987 165.13374341 C0.11414981 165.11414981 0.11414981 165.11414981 -1 164 C-1.09840682 162.30401685 -1.12632033 160.60391065 -1.12698364 158.90507507 C-1.12980347 157.79983994 -1.13262329 156.6946048 -1.13552856 155.55587769 C-1.13350433 154.33176178 -1.1314801 153.10764587 -1.12939453 151.84643555 C-1.13114685 150.56478012 -1.13289917 149.28312469 -1.13470459 147.96263123 C-1.13928643 144.42785578 -1.13748309 140.89310935 -1.1343255 137.35833335 C-1.13179123 133.63714759 -1.13414376 129.9159643 -1.13571167 126.19477844 C-1.13753635 119.91557371 -1.13512564 113.63638069 -1.13037109 107.35717773 C-1.12499176 100.17146519 -1.126643 92.98578129 -1.1321975 85.80006951 C-1.13679755 79.59414039 -1.13734426 73.38821971 -1.13475883 67.18228942 C-1.133225 63.49369551 -1.13291889 59.80511482 -1.13629532 56.11652184 C-1.15115459 37.38799077 -0.8165196 18.71183947 0 0 Z " fill="#F4F4F5" transform="translate(376,484)"/>
<path d="M0 0 C0.8720294 -0.00384115 1.7440588 -0.00768229 2.64251333 -0.01163983 C3.59609573 -0.01077335 4.54967812 -0.00990687 5.53215694 -0.00901413 C6.54870151 -0.01198525 7.56524608 -0.01495637 8.61259502 -0.01801753 C12.02938903 -0.02671037 15.44614803 -0.02821329 18.86295223 -0.02970505 C21.30871817 -0.03433289 23.75448339 -0.0393575 26.20024776 -0.04475021 C32.8534312 -0.0578814 39.50660091 -0.06435764 46.15979409 -0.06876087 C50.31682382 -0.07152524 54.47385124 -0.07576303 58.6308794 -0.08026505 C70.14746517 -0.09245843 81.66404909 -0.10275658 93.18064117 -0.10614014 C94.28613389 -0.10646949 94.28613389 -0.10646949 95.4139598 -0.10680549 C96.15269434 -0.10702377 96.89142889 -0.10724204 97.65254933 -0.10746694 C99.14944144 -0.1079104 100.64633356 -0.10835696 102.14322567 -0.10880661 C103.25698508 -0.10913875 103.25698508 -0.10913875 104.39324468 -0.10947761 C116.41332643 -0.1134221 128.43334744 -0.13086514 140.45340575 -0.15416613 C152.80349344 -0.1779129 165.15355069 -0.19034355 177.50366157 -0.19150805 C184.43395543 -0.19242312 191.36417018 -0.19813246 198.29444218 -0.21632767 C204.8172677 -0.23339299 211.33997002 -0.23495642 217.86282063 -0.22618866 C220.25285525 -0.22541904 222.64289799 -0.22975107 225.03291225 -0.23964691 C228.30456619 -0.25239517 231.57569165 -0.24647355 234.84734249 -0.23606491 C236.2542935 -0.24814952 236.2542935 -0.24814952 237.68966776 -0.26047826 C248.5595507 -0.18001981 256.69605683 2.13378345 264.53262997 9.78377151 C270.21315969 16.12949339 271.75478447 21.71103585 271.77463436 30.11290359 C271.77909104 31.16712849 271.77909104 31.16712849 271.78363776 32.24265087 C271.79230916 34.59767842 271.7938317 36.95265505 271.79532528 39.3076973 C271.79995466 40.99647505 271.80497948 42.68525176 271.81037045 44.37402725 C271.82348733 48.96315805 271.82993835 53.55227422 271.8343811 58.14142084 C271.83731378 61.01062879 271.84141902 63.87983275 271.84588528 66.7490387 C271.8595601 75.73198431 271.86922608 84.7149208 271.87308717 93.6978761 C271.87756405 104.05590635 271.89509481 114.41380438 271.92408776 124.77179444 C271.94573521 132.78470666 271.95579313 140.79758177 271.95712829 148.81052291 C271.95817438 153.59289819 271.96404018 158.37514919 271.9819479 163.15749359 C271.99848094 167.66041977 272.00055878 172.16312895 271.99180889 176.66607475 C271.99104124 178.31314235 271.9953452 179.96022186 272.00526714 181.60725975 C272.07529516 193.96280367 271.54302485 204.71832185 262.63419247 214.13142776 C254.76909649 221.53387104 244.77029729 222.58467289 234.40128231 222.47200394 C232.78975277 222.47266106 232.78975277 222.47266106 231.14566708 222.47333145 C227.62863024 222.47125752 224.11208253 222.44799225 220.59512997 222.42439651 C218.1431978 222.41879561 215.69126226 222.41452785 213.23932552 222.41153336 C206.81136327 222.40012364 200.383607 222.37068975 193.95572567 222.33742142 C187.38633669 222.30663693 180.81691416 222.29301014 174.24747372 222.27791214 C161.37627528 222.24581634 148.5052833 222.19308001 135.63419247 222.13142776 C135.96419247 232.69142776 136.29419247 243.25142776 136.63419247 254.13142776 C141.74468075 254.18750198 141.74468075 254.18750198 146.95841122 254.24470901 C150.26145471 254.2909323 153.56438524 254.34216316 156.86734676 254.39387894 C159.16122214 254.42711411 161.45517901 254.4551504 163.7491827 254.47786331 C167.0484452 254.5114345 170.34696177 254.56375312 173.64591122 254.61970901 C174.6700462 254.62609894 175.69418118 254.63248886 176.74935055 254.63907242 C183.40423197 254.77620052 186.9612855 255.67524299 191.94669247 260.25642776 C194.30655257 264.27693016 194.68192027 267.58351302 193.63419247 272.13142776 C191.30900043 276.05291151 188.9902996 278.67939205 184.63419247 280.13142776 C182.93739848 280.23379551 181.23691696 280.27932444 179.53708553 280.29205704 C178.48289425 280.30210266 177.42870296 280.31214828 176.34256649 280.32249832 C175.18615658 280.32832932 174.02974667 280.33416031 172.83829403 280.340168 C171.62015011 280.34995178 170.40200619 280.35973557 169.14694881 280.36981583 C165.1062481 280.39978834 161.0655827 280.42146444 157.02481747 280.44002151 C155.99279343 280.4449675 155.99279343 280.4449675 154.93992043 280.4500134 C148.44843367 280.48079309 141.95694218 280.50749372 135.46540356 280.52443218 C127.17001555 280.5463334 118.87527519 280.58829826 110.58014607 280.65786976 C104.7430855 280.70515837 98.90619937 280.72937212 93.06895328 280.73662907 C89.5847535 280.74157815 86.10128413 280.7565855 82.61729336 280.79637337 C78.72722762 280.84021399 74.8379903 280.83633197 70.94766903 280.82844925 C69.79935604 280.84844986 68.65104305 280.86845047 67.4679327 280.88905716 C61.15325577 280.83160923 57.41990602 280.20458952 52.83020306 275.71239185 C50.46676219 272.58824298 50.18714542 269.10307778 50.20841122 265.26814651 C50.99054131 261.34314502 53.72204704 258.73425205 56.63419247 256.13142776 C59.03064991 254.93319905 60.59081274 254.97515462 63.26749325 254.9261055 C64.22833828 254.90616028 65.18918331 254.88621506 66.17914486 254.86566544 C67.21876369 254.84895294 68.25838253 254.83224045 69.32950497 254.81502151 C70.39208523 254.79424042 71.45466549 254.77345932 72.54944515 254.75204849 C75.95262684 254.68652516 79.35588736 254.62765503 82.75919247 254.56892776 C85.06258612 254.5257452 87.36597173 254.482131 89.66934872 254.43806839 C95.32421693 254.33002657 100.97914269 254.23097358 106.63419247 254.13142776 C106.96419247 243.57142776 107.29419247 233.01142776 107.63419247 222.13142776 C102.75984432 222.15499344 102.75984432 222.15499344 97.7870245 222.17903519 C87.03031585 222.22882493 76.27360201 222.26191427 65.51680851 222.28686428 C58.99728055 222.30249596 52.47787103 222.32368886 45.95841122 222.35774612 C39.66253024 222.39042825 33.36676293 222.40829956 27.07080364 222.41605949 C24.67313378 222.42158709 22.27546988 222.43238104 19.87784863 222.44861794 C16.51019934 222.47050949 13.14301515 222.47338974 9.77530575 222.47200394 C8.79202801 222.48278976 7.80875027 222.49357559 6.79567623 222.50468826 C-3.20759562 222.46037213 -12.09223244 220.3269602 -19.36580753 213.13142776 C-25.2333019 205.97308463 -27.61119162 199.14302169 -27.62650394 189.82715225 C-27.63032949 189.12585593 -27.63415504 188.42455961 -27.63809651 187.70201188 C-27.64835202 185.37005628 -27.64444866 183.03835034 -27.64046574 180.70637894 C-27.6448164 179.02700957 -27.65000073 177.34764219 -27.65595341 175.66827774 C-27.66931797 171.11855668 -27.66992481 166.56891882 -27.66739011 162.01918197 C-27.66631846 158.214729 -27.67120883 154.41029274 -27.67599553 150.60584337 C-27.68708237 141.6259961 -27.68753304 132.64619067 -27.68148136 123.66633987 C-27.67544439 114.41811921 -27.68774746 105.1700508 -27.70905143 95.92185611 C-27.72669595 87.96832379 -27.73266421 80.01483981 -27.72941369 72.06128865 C-27.7276049 67.31697372 -27.73019633 62.57276735 -27.74412823 57.82847023 C-27.75674805 53.36406663 -27.75472334 48.89989937 -27.74171734 44.43549919 C-27.73936086 42.80294717 -27.74205272 41.1703783 -27.75034046 39.53784561 C-27.80275305 28.40518564 -27.56438085 17.99974642 -20.24471378 8.95564651 C-14.58189345 3.4576484 -7.90623397 0.0131059 0 0 Z M1.63419247 28.13142776 C0.7863634 47.56077322 0.48206668 66.95387187 0.49986696 86.39988303 C0.50245736 90.13354413 0.50003626 93.86720318 0.4984808 97.60086441 C0.49668418 103.83200409 0.49900475 110.06313173 0.50382137 116.29426956 C0.50932423 123.49641951 0.50744836 130.6985414 0.50199497 137.90069073 C0.49746842 144.12967186 0.49680908 150.35864452 0.49943364 156.58762676 C0.50099069 160.29004906 0.50120449 163.99245809 0.49789715 167.69487953 C0.49449119 171.78922477 0.49920002 175.8835205 0.50479794 179.97786331 C0.5027737 181.20197922 0.50074947 182.42609512 0.4986639 183.68730545 C0.50148373 184.79254059 0.50430355 185.89777573 0.50720882 187.03650284 C0.50758585 188.00212489 0.50796288 188.96774694 0.50835133 189.96263027 C0.39182063 192.11070912 0.39182063 192.11070912 1.63419247 193.13142776 C4.72904975 193.23169972 7.80167126 193.26580319 10.89700985 193.25841141 C12.37343732 193.26075139 12.37343732 193.26075139 13.8796916 193.26313865 C17.20477446 193.26715325 20.52981232 193.26395724 23.85489559 193.2608223 C26.22777489 193.26217613 28.60065399 193.26395597 30.97353268 193.26613235 C36.76567891 193.27023268 42.55781065 193.26961342 48.34995735 193.26671971 C53.05530426 193.26446583 57.76064754 193.26415309 62.46599483 193.26524353 C63.13443268 193.26539676 63.80287053 193.26555 64.49156407 193.26570787 C65.8492738 193.26602758 67.20698354 193.2663518 68.56469327 193.26668046 C81.31065009 193.26953537 94.05659974 193.26624807 106.80255538 193.2608801 C117.75083254 193.25641205 128.6990991 193.25718798 139.64737606 193.26179886 C152.34619652 193.26714444 165.04501068 193.26926068 177.74383211 193.26618659 C179.09668477 193.26586803 180.44953744 193.26555366 181.8023901 193.26524353 C182.46810497 193.26508925 183.13381985 193.26493498 183.8197079 193.26477603 C188.52207689 193.26391082 193.22444189 193.26537382 197.92681026 193.26772308 C204.25009104 193.2706005 210.5733517 193.2686285 216.89663029 193.26282883 C219.2247435 193.26150053 221.5528584 193.26189651 223.88097095 193.26409149 C227.04446228 193.26680028 230.207888 193.26342521 233.37137508 193.25841141 C234.30549866 193.26064213 235.23962224 193.26287285 236.20205259 193.26517117 C240.23851126 193.66194317 240.23851126 193.66194317 243.63419247 192.13142776 C243.73543277 190.04776205 243.76497018 187.96060673 243.76790524 185.87448502 C243.77130357 184.88301685 243.77130357 184.88301685 243.77477056 183.87151903 C243.7811376 181.64051092 243.78027948 179.40956314 243.77945614 177.17854691 C243.78244595 175.58560481 243.78584806 173.99266345 243.78963375 172.39972305 C243.79849607 168.06093952 243.8008128 163.72217569 243.80144954 159.38338399 C243.80239677 155.76736759 243.80607291 152.15135583 243.80962163 148.5353412 C243.81777465 140.00755323 243.82020509 131.47977582 243.8194952 122.95198441 C243.81889416 114.14115228 243.82944926 105.33038133 243.84523886 96.51956469 C243.85829343 88.96713123 243.86367998 81.41471782 243.86303979 73.86227316 C243.86278419 69.34618097 243.86566936 64.83014312 243.87621784 60.31406212 C243.8858639 56.06813494 243.88600218 51.82231442 243.87870121 47.57638359 C243.877651 46.01465322 243.88004392 44.45291633 243.88606167 42.8911972 C243.89372341 40.76578873 243.88917598 38.64075397 243.88143063 36.51535416 C243.88197539 35.32385285 243.88252016 34.13235155 243.88308144 32.90474415 C243.92020802 29.99006221 243.92020802 29.99006221 241.63419247 28.13142776 C239.78332351 27.83208274 239.78332351 27.83208274 237.63992786 27.88533211 C236.79993083 27.88135001 235.95993379 27.87736791 235.0944823 27.87326515 C233.70247944 27.88200367 233.70247944 27.88200367 232.28235531 27.89091873 C231.30059389 27.88920988 230.31883248 27.88750103 229.30732071 27.8857404 C225.99677159 27.88242955 222.68642233 27.8934754 219.37589169 27.90437698 C217.01109478 27.90494075 214.64629752 27.90462521 212.28150082 27.90349197 C206.51319985 27.902976 200.74496502 27.91167195 194.97667919 27.92436729 C188.2664347 27.93864343 181.55619971 27.9416558 174.84594215 27.94394363 C162.87869779 27.94832388 150.91148064 27.9616419 138.94425106 27.98054886 C127.31729932 27.99889914 115.69035497 28.01305981 104.06339169 28.02156448 C103.34703819 28.02208993 102.6306847 28.02261538 101.89262353 28.02315675 C98.29898774 28.02576677 94.70535191 28.0282942 91.11171603 28.03078055 C61.28585577 28.05152331 31.4600273 28.08690617 1.63419247 28.13142776 Z " fill="#387A65" transform="translate(374.36580753326416,455.8685722351074)"/>
<path d="M0 0 C1.79244141 0.01740234 1.79244141 0.01740234 3.62109375 0.03515625 C5.41740234 0.04869141 5.41740234 0.04869141 7.25 0.0625 C8.17683594 0.07410156 9.10367188 0.08570313 10.05859375 0.09765625 C11.21049841 3.55337022 11.17866468 6.21814651 11.17211914 9.86401367 C11.17226517 10.54720169 11.17241119 11.23038971 11.17256165 11.9342804 C11.17186544 14.19059432 11.16408671 16.44682551 11.15625 18.703125 C11.15438478 20.26825414 11.15296137 21.83338386 11.15196228 23.39851379 C11.14814527 27.51668918 11.13832193 31.63482927 11.1272583 35.75299072 C11.11702666 39.955765 11.1124609 44.15854498 11.10742188 48.36132812 C11.09669894 56.60678703 11.07963229 64.85221725 11.05859375 73.09765625 C7.26817024 74.41586611 4.20931837 75.34464791 0.18359375 75.22265625 C-0.59757812 75.20460938 -1.37875 75.1865625 -2.18359375 75.16796875 C-2.76367188 75.14476562 -3.34375 75.1215625 -3.94140625 75.09765625 C-3.94140625 73.77765625 -3.94140625 72.45765625 -3.94140625 71.09765625 C-4.70453125 71.73703125 -5.46765625 72.37640625 -6.25390625 73.03515625 C-10.87089781 76.57842884 -15.32202531 76.7442949 -20.94140625 76.09765625 C-27.63425115 74.00987041 -31.66745201 70.00438418 -35.1328125 64.05078125 C-39.23580635 55.53027833 -39.57884925 45.60935119 -36.90625 36.61328125 C-33.78490471 29.62285894 -29.83979698 25.42202359 -22.94140625 22.09765625 C-20.08444667 21.14533639 -18.10663584 20.90254527 -15.12890625 20.84765625 C-14.29746094 20.821875 -13.46601563 20.79609375 -12.609375 20.76953125 C-9.26886996 21.18036935 -6.86472842 22.47595928 -3.94140625 24.09765625 C-3.94664307 23.40615479 -3.95187988 22.71465332 -3.95727539 22.00219727 C-3.97798125 18.88819273 -3.99104588 15.77420264 -4.00390625 12.66015625 C-4.01228516 11.57154297 -4.02066406 10.48292969 -4.02929688 9.36132812 C-4.03251953 8.32685547 -4.03574219 7.29238281 -4.0390625 6.2265625 C-4.04429932 5.2682251 -4.04953613 4.3098877 -4.05493164 3.32250977 C-3.88043519 -0.09724537 -3.4822216 0.11561161 0 0 Z " fill="#2F6857" transform="translate(368.94140625,320.90234375)"/>
<path d="M0 0 C5.89766561 3.51856483 10.71688658 7.80387505 13.21484375 14.31640625 C15.14268547 22.89530189 15.09768303 32.86763642 11.31640625 40.90625 C8.01267293 45.80940976 3.49234864 50.21348795 -2.16015625 52.09765625 C-4.28085186 52.26831909 -6.40810723 52.36391605 -8.53515625 52.41015625 C-10.21738281 52.46623047 -10.21738281 52.46623047 -11.93359375 52.5234375 C-15.16015625 52.09765625 -15.16015625 52.09765625 -20.16015625 48.09765625 C-20.49015625 54.69765625 -20.82015625 61.29765625 -21.16015625 68.09765625 C-25.45015625 68.09765625 -29.74015625 68.09765625 -34.16015625 68.09765625 C-34.16015625 46.31765625 -34.16015625 24.53765625 -34.16015625 2.09765625 C-9.72213104 -4.41915047 -9.72213104 -4.41915047 0 0 Z " fill="#2B6654" transform="translate(665.16015625,343.90234375)"/>
<path d="M0 0 C5.75180151 0.00020829 11.50359836 -0.00535408 17.25539756 -0.01005757 C28.46019016 -0.01827002 39.6649775 -0.02110795 50.86977287 -0.02166995 C59.98660024 -0.02214901 69.10342592 -0.02422291 78.22025275 -0.02737057 C99.97138631 -0.03472567 121.72251858 -0.04089835 143.47365355 -0.04037201 C144.16509785 -0.04035644 144.85654214 -0.04034086 145.56893929 -0.04032481 C149.0717448 -0.04024173 152.57455031 -0.04014269 156.07735582 -0.0400401 C157.12047047 -0.04001018 157.12047047 -0.04001018 158.18465814 -0.03997966 C159.59093006 -0.03993922 160.99720197 -0.03989742 162.40347388 -0.03985427 C184.30886416 -0.03924079 206.21423899 -0.04677141 228.11962485 -0.06042683 C252.84613673 -0.07583532 277.57263838 -0.08437781 302.29915535 -0.08346361 C315.35015506 -0.08313324 328.40113728 -0.08581032 341.45213294 -0.09664166 C352.5504266 -0.10579524 363.64869482 -0.10788182 374.74699064 -0.10113224 C380.39339597 -0.09789327 386.03975263 -0.09771435 391.68615317 -0.10648549 C456.27488376 -0.20027651 456.27488376 -0.20027651 478.55468345 6.14538372 C479.89003811 6.46584257 481.22735607 6.77821764 482.5664022 7.08288372 C497.17234362 10.43227408 510.57091476 15.66220001 523.61718345 23.08288372 C524.21595298 23.41739543 524.81472251 23.75190715 525.43163657 24.09655559 C529.08941291 26.17583919 532.2963189 28.49695933 535.55468345 31.14538372 C536.36292563 31.62878215 537.17116782 32.11218059 538.0039022 32.61022747 C541.00808396 34.41825722 543.64670398 36.49726653 546.36718345 38.70788372 C547.83091392 39.88544231 547.83091392 39.88544231 549.3242147 41.08678997 C550.42829673 42.10579387 550.42829673 42.10579387 551.55468345 43.14538372 C551.55468345 43.80538372 551.55468345 44.46538372 551.55468345 45.14538372 C552.38999595 45.45475872 552.38999595 45.45475872 553.24218345 45.77038372 C555.84805581 47.31982134 557.41021471 49.2220205 559.2773397 51.58288372 C560.66336404 53.33846806 560.66336404 53.33846806 562.92968345 55.45788372 C574.79237744 67.60302281 585.77011471 84.856377 591.6601522 100.74694622 C592.24013395 102.30200646 592.86567077 103.84111029 593.5429647 105.35632122 C596.31811741 111.63523817 597.77941975 118.02947073 599.1601522 124.72546184 C599.31355063 125.46731731 599.46694907 126.20917278 599.62499595 126.97350872 C599.75664145 127.63254192 599.88828696 128.29157512 600.02392173 128.97057903 C600.52791718 131.22506741 600.52791718 131.22506741 601.48775536 133.62435901 C606.15733838 149.03469206 605.9935495 166.00460743 605.92890525 181.9661845 C605.93165471 184.05679387 605.93571431 186.14740185 605.9409489 188.23800647 C605.95141488 193.91088943 605.94348634 199.58361203 605.93219841 205.25648773 C605.92328091 211.40246327 605.93182152 217.54841951 605.93806052 223.69439495 C605.9469627 235.01398551 605.94242222 246.33351105 605.9308967 257.65309376 C605.92031921 268.11409 605.91582645 278.57506821 605.91719222 289.03606975 C605.91731827 290.08092864 605.91731827 290.08092864 605.91744686 291.14689578 C605.91779916 293.97521235 605.91818319 296.80352892 605.91861244 299.63184548 C605.92256871 326.11019368 605.90990124 352.58851005 605.88908587 379.06684914 C605.87071936 402.54030098 605.86490452 426.01372234 605.87035728 449.48718059 C605.87070371 450.99462791 605.87104981 452.50207523 605.87139557 454.00952256 C605.87165206 455.12745594 605.87165206 455.12745594 605.87191373 456.26797383 C605.87276741 460.02045559 605.87359119 463.77293735 605.87438273 467.52541912 C605.87453981 468.26588936 605.8746969 469.00635961 605.87485874 469.76926835 C605.87885764 489.44154403 605.87336131 509.11381682 605.86487144 528.78609073 C605.8639645 530.90535104 605.86305885 533.02461134 605.86215621 535.14387165 C605.8615551 536.54945397 605.86094648 537.95503629 605.8603303 539.36061861 C605.85612537 549.11963868 605.85552377 558.87865299 605.8574358 568.63767368 C605.85988905 581.22031874 605.85551255 593.80293068 605.84022579 606.38556993 C605.8330221 612.44413925 605.82887008 618.50266627 605.83346915 624.56123912 C605.83758793 630.12269596 605.83226168 635.68406598 605.81984308 641.24550974 C605.81694931 643.24185149 605.81729701 645.23820161 605.82148615 647.23454106 C605.8413156 657.64072973 605.54267853 667.94913765 604.66338992 678.32168376 C604.58592528 679.24243501 604.50846064 680.16318626 604.42864858 681.11183906 C603.63545496 689.65228885 602.44264277 698.04336554 599.55468345 706.14538372 C599.05293029 708.09798938 598.55174684 710.05075625 598.05932212 712.00573528 C593.18548022 730.93042488 583.41002916 760.6031361 566.55468345 772.14538372 C568.05988724 768.87859526 569.94336902 765.89660421 571.87914634 762.87023723 C585.45248137 741.60695944 595.27882039 719.16107935 599.55468345 694.14538372 C599.69599692 693.32167278 599.8373104 692.49796184 599.9829061 691.64928997 C602.82120504 674.70231987 603.70388359 658.07345465 603.69512534 640.9134959 C603.69771309 638.87347926 603.70072738 636.83346312 603.70412874 634.79344767 C603.71215391 629.2139708 603.7139858 623.63450682 603.71472621 618.05502486 C603.71658462 612.02678632 603.72413588 605.99855434 603.73086143 599.97031963 C603.74511943 586.11437036 603.75096717 572.25842291 603.75555337 558.40246811 C603.75789471 551.5449233 603.76149795 544.68737932 603.76524875 537.82983516 C603.7780798 514.32324424 603.78879917 490.81665377 603.79225135 467.31005943 C603.79247298 465.83638153 603.79269476 464.36270363 603.7929167 462.88902574 C603.79313734 461.41193697 603.79335782 459.93484821 603.79357815 458.45775944 C603.79402068 455.49482886 603.7944678 452.53189828 603.79491782 449.5689677 C603.79502721 448.83434146 603.7951366 448.09971523 603.79524931 447.34282759 C603.79887723 423.5405504 603.81478956 399.73830372 603.83810819 375.93603821 C603.86275751 350.72907013 603.87642655 325.52211947 603.87761927 300.315139 C603.8777907 297.54293004 603.87800612 294.7707211 603.8782537 291.99851215 C603.87833735 290.97473218 603.87833735 290.97473218 603.87842269 289.93026978 C603.87956871 278.99250392 603.89055214 268.05476963 603.90514075 257.11701439 C603.91957575 246.10317682 603.92245297 235.08937403 603.91470078 224.07552876 C603.91081354 218.12016712 603.91162895 212.16491065 603.92575812 206.20956218 C604.29104346 173.53636856 604.29104346 173.53636856 600.55468345 141.14538372 C600.40055818 140.31556621 600.24643291 139.48574871 600.08763719 138.63078523 C593.88000184 105.85114937 579.1793524 76.65544175 556.55468345 52.14538372 C555.7967147 51.31651653 555.03874595 50.48764934 554.25780845 49.63366497 C540.20387854 34.93858862 521.59415708 23.13122515 502.55468345 16.14538372 C501.80412681 15.86211223 501.05357017 15.57884075 500.28026938 15.28698528 C486.61808074 10.18882886 472.99376951 7.08119384 458.55468345 5.14538372 C457.31061235 4.9773934 456.06654125 4.80940308 454.78477103 4.63632214 C442.82336644 3.11735894 431.02528506 2.86257888 418.98002219 2.89141643 C416.85518047 2.889107 414.73033956 2.88592726 412.60550028 2.88196194 C406.81487889 2.87367137 401.02432406 2.87771294 395.23370254 2.88393438 C388.9697506 2.8884816 382.70580967 2.88146384 376.44185996 2.87597454 C364.89573064 2.86761432 353.34963074 2.86831176 341.80350159 2.87379747 C331.13262166 2.87884201 320.46174941 2.88013576 309.79086852 2.87775218 C308.72634303 2.87752303 308.72634303 2.87752303 307.64031198 2.87728924 C304.75895382 2.8766665 301.87759567 2.87602969 298.99623752 2.87536972 C272.0006499 2.86926027 245.00507564 2.87478469 218.00949009 2.88556351 C194.06694647 2.89505068 170.12442414 2.89420706 146.18188071 2.88464153 C119.2380664 2.87391273 92.29426387 2.86969674 65.35044771 2.87586606 C62.4736137 2.87650742 59.59677969 2.8771331 56.71994567 2.87775218 C55.65754126 2.87798942 55.65754126 2.87798942 54.57367413 2.87823144 C43.91602623 2.88049864 33.2583869 2.87786028 22.60074019 2.87279308 C10.47032654 2.86705415 -1.66005564 2.86873825 -13.79046766 2.87935457 C-19.97229722 2.88458758 -26.15408376 2.88670873 -32.33591294 2.88005626 C-38.00786981 2.87404512 -43.67974426 2.87745607 -49.35169377 2.88801137 C-51.39054601 2.89022373 -53.42940538 2.88915859 -55.46825293 2.88425979 C-72.76810891 2.84592039 -90.21896591 3.44732309 -107.13281655 7.39538372 C-108.07995522 7.60936809 -109.0270939 7.82335247 -110.00293374 8.04382122 C-122.25562325 10.90840701 -134.16356993 14.71082287 -145.47656655 20.26257122 C-147.44531655 21.14538372 -147.44531655 21.14538372 -149.44531655 21.14538372 C-149.44531655 20.48538372 -149.44531655 19.82538372 -149.44531655 19.14538372 C-145.53406417 17.527795 -141.61541838 15.92889346 -137.69531655 14.33288372 C-136.60348062 13.88106731 -135.51164468 13.4292509 -134.3867228 12.96374309 C-124.40899831 8.91951748 -114.48753116 6.42940622 -103.89844155 4.61413372 C-101.2356214 4.14806061 -101.2356214 4.14806061 -97.88281655 3.08288372 C-87.88583837 0.35643512 -77.10488989 0.83124249 -66.80533242 0.5919627 C-65.94052761 0.57101032 -65.07572279 0.55005795 -64.18471177 0.52847066 C-42.79105229 0.0193689 -21.39861376 -0.00486064 0 0 Z " fill="#FCFBFC" transform="translate(328.44531655311584,91.85461628437042)"/>
<path d="M0 0 C5.43363195 3.58881813 9.70802139 8.82298029 11.66796875 15.0703125 C13.57347909 25.17632271 12.09822898 34.34457753 7.04296875 43.265625 C3.80478582 47.7631013 -0.68848422 49.95614145 -5.89453125 51.390625 C-13.24415257 52.42846778 -19.6422621 51.49367663 -25.89453125 47.390625 C-32.22015592 42.19457616 -35.26201972 34.55021344 -36.2421875 26.5546875 C-36.50719492 18.32793527 -34.93554896 11.57460203 -29.76953125 5.078125 C-21.6634725 -3.43578577 -10.51062104 -5.28321482 0 0 Z " fill="#2F6857" transform="translate(610.89453125,344.609375)"/>
<path d="M0 0 C3.96 0 7.92 0 12 0 C14.0568946 2.0568946 13.25747076 6.35555998 13.31640625 9.19140625 C13.33718735 10.01124496 13.35796844 10.83108368 13.37937927 11.67576599 C13.44496494 14.30458901 13.50380126 16.93351504 13.5625 19.5625 C13.60567667 21.34050561 13.64929067 23.11850065 13.69335938 24.89648438 C13.80065543 29.26421634 13.90189704 33.63205227 14 38 C14.85464844 37.00097656 15.70929688 36.00195312 16.58984375 34.97265625 C17.70570754 33.66925232 18.82159414 32.36586791 19.9375 31.0625 C20.50146484 30.40314453 21.06542969 29.74378906 21.64648438 29.06445312 C22.18466797 28.43603516 22.72285156 27.80761719 23.27734375 27.16015625 C24.02359009 26.28822632 24.02359009 26.28822632 24.78491211 25.39868164 C25.4986683 24.57708043 26.23042985 23.76957015 27 23 C29.69654854 22.92680379 32.36691458 22.90757463 35.0625 22.9375 C35.82111328 22.94201172 36.57972656 22.94652344 37.36132812 22.95117188 C39.24091871 22.9629932 41.12046899 22.98092922 43 23 C42.44492231 26.96744055 40.52471521 28.8969495 37.8125 31.75 C33.47165436 36.45173781 33.47165436 36.45173781 29.3125 41.3125 C28.81363281 41.90675781 28.31476562 42.50101562 27.80078125 43.11328125 C26.7688401 45.03417971 26.7688401 45.03417971 27.52734375 47.3359375 C29.38147661 50.69009828 31.7232767 53.45883848 34.25 56.3125 C35.24236002 57.46096707 36.23325286 58.61070357 37.22265625 59.76171875 C37.69977051 60.31520996 38.17688477 60.86870117 38.66845703 61.43896484 C40.39407387 63.46199272 42.06045933 65.52194264 43.6875 67.625 C44.14511719 68.21539062 44.60273437 68.80578125 45.07421875 69.4140625 C46 71 46 71 46 74 C40.67250934 74.84223817 35.23941192 75.63091654 30 74 C25.67329256 70.80412301 22.91622964 66.14583529 20.10351562 61.64257812 C18.65287153 59.4833008 16.92052816 57.74433291 15 56 C12.95649549 58.04350451 13.63104366 62.175281 13.5 65 C13.13513514 72.86486486 13.13513514 72.86486486 12 74 C8.04 74 4.08 74 0 74 C0 49.58 0 25.16 0 0 Z " fill="#2D6655" transform="translate(491,321)"/>
<path d="M0 0 C7.46608817 3.79027985 11.30793969 9.54523984 14.35546875 17.1640625 C14.35546875 21.1240625 14.35546875 25.0840625 14.35546875 29.1640625 C3.46546875 29.1640625 -7.42453125 29.1640625 -18.64453125 29.1640625 C-17.50202418 36.64956674 -17.50202418 36.64956674 -14.64453125 39.1640625 C-9.52326518 39.87328775 -5.03749309 40.21652256 -0.83203125 37.0390625 C-0.11015625 36.4203125 0.61171875 35.8015625 1.35546875 35.1640625 C5.53875848 35.94842932 8.80549367 37.8670198 12.35546875 40.1640625 C10.98957492 44.6342605 9.29223922 46.65123029 5.35546875 49.1640625 C-2.08090796 52.72986609 -10.53982141 53.8230932 -18.45703125 51.25 C-24.71556964 48.36287664 -28.96394109 45.07743673 -31.73828125 38.6171875 C-33.95024546 30.18884112 -34.34233931 19.2762125 -31.58203125 10.96484375 C-24.9197194 0.30152397 -11.86074948 -3.74918817 0 0 Z " fill="#2C6655" transform="translate(420.64453125,343.8359375)"/>
<path d="M0 0 C0.74258057 0.00878174 1.48516113 0.01756348 2.25024414 0.02661133 C8.34890041 0.25174957 13.98939842 1.39897453 18.6875 5.5625 C19.94140625 8.23828125 19.94140625 8.23828125 20.6875 10.5625 C18.0475 12.5425 15.4075 14.5225 12.6875 16.5625 C11.346875 15.9025 10.00625 15.2425 8.625 14.5625 C4.34238983 12.63803593 1.33368777 12.16707976 -3.3125 12.5625 C-3.6425 14.2125 -3.9725 15.8625 -4.3125 17.5625 C-1.54260299 19.07845715 0.83113013 19.86658335 3.9375 20.375 C10.08611134 21.67157702 14.40419112 24.67877017 19.1875 28.625 C22.12710822 34.38173276 21.42529606 40.9802138 19.6875 47.0625 C16.56458858 50.96613928 12.40627929 53.06954112 7.4765625 53.96337891 C5.1982952 54.13275009 2.9714745 54.16909498 0.6875 54.125 C-0.10487061 54.11549316 -0.89724121 54.10598633 -1.71362305 54.09619141 C-7.69446685 53.88217011 -11.98274028 52.92644203 -16.3125 48.5625 C-16.84359375 48.05847656 -17.3746875 47.55445313 -17.921875 47.03515625 C-19.375 45.5 -19.375 45.5 -21.3125 42.5625 C-21.21875 40.48828125 -21.21875 40.48828125 -20.3125 38.5625 C-18.24609375 37.515625 -18.24609375 37.515625 -15.75 36.8125 C-14.92371094 36.57015625 -14.09742188 36.3278125 -13.24609375 36.078125 C-12.60800781 35.90796875 -11.96992188 35.7378125 -11.3125 35.5625 C-10.52875 36.366875 -9.745 37.17125 -8.9375 38 C-5.6282144 41.23049309 -4.28371012 41.70201692 0.1875 41.6875 C0.9815625 41.69007813 1.775625 41.69265625 2.59375 41.6953125 C4.74668534 41.69527996 4.74668534 41.69527996 6.6875 40.5625 C6.82190778 38.13330135 6.82190778 38.13330135 5.6875 35.5625 C2.19050322 33.90937425 -1.05864184 32.84569226 -4.8203125 31.99609375 C-10.62832359 30.58405436 -14.36086859 28.72333741 -18.08984375 23.9453125 C-20.35133782 19.5379279 -20.22154361 15.34964096 -19.3125 10.5625 C-15.54302955 2.26966502 -8.5005092 -0.1740292 0 0 Z " fill="#2C6655" transform="translate(461.3125,342.4375)"/>
<path d="M0 0 C0.33 3.63 0.66 7.26 1 11 C3.57161458 11.22786458 6.14322917 11.45572917 8.71484375 11.68359375 C11 12 11 12 12 13 C12.14310287 16.6691577 12.04221662 20.32715441 12 24 C8.04 24 4.08 24 0 24 C0.11360633 28.10477592 0.24036599 32.20840664 0.375 36.3125 C0.4059375 37.47974609 0.436875 38.64699219 0.46875 39.84960938 C0.50742187 40.96787109 0.54609375 42.08613281 0.5859375 43.23828125 C0.63306885 44.7857605 0.63306885 44.7857605 0.68115234 46.36450195 C0.82674629 49.22843236 0.82674629 49.22843236 3 52 C5.19454681 52.57993699 5.19454681 52.57993699 7.625 52.6875 C9.06875 52.790625 10.5125 52.89375 12 53 C12.495 57.95 12.495 57.95 13 63 C7.57459181 65.71270409 2.9756748 65.74217728 -3 65 C-7.43001585 63.35899254 -10.15683318 61.42818923 -12.56933594 57.34179688 C-14.16631445 53.6115167 -14.42531396 50.89530646 -14.51171875 46.8515625 C-14.52966995 46.19417084 -14.54762115 45.53677917 -14.56611633 44.85946655 C-14.61984437 42.78137428 -14.65399125 40.70350653 -14.6875 38.625 C-14.72070653 37.20700024 -14.75519924 35.78902999 -14.79101562 34.37109375 C-14.87554651 30.9142782 -14.94253568 27.45738362 -15 24 C-16.98 23.67 -18.96 23.34 -21 23 C-21 20.03 -21 17.06 -21 14 C-18.36 14 -15.72 14 -13 14 C-13 9.38 -13 4.76 -13 0 C-8.52745503 -1.49084832 -4.47254497 -1.49084832 0 0 Z " fill="#2F6756" transform="translate(559,331)"/>
<path d="M0 0 C0.33 0 0.66 0 1 0 C1.00097681 1.02369727 1.00195362 2.04739455 1.00296003 3.10211295 C1.04626239 48.27851992 1.09328846 93.45492148 1.15898132 138.63130188 C1.15997689 139.31665988 1.16097246 140.00201789 1.16199819 140.70814431 C1.18366333 155.6075091 1.2059865 170.50687283 1.22898628 185.40623562 C1.24026351 192.71426431 1.25139553 200.02229323 1.26245117 207.33032227 C1.26355374 208.05750833 1.2646563 208.78469439 1.26579228 209.5339164 C1.3013775 233.04859233 1.32739834 256.56326686 1.34838969 280.07795997 C1.37003565 304.26879964 1.40146967 328.45960772 1.44499113 352.65041838 C1.45115219 356.07746496 1.45720287 359.50451172 1.46318626 362.93155861 C1.46436715 363.60596393 1.46554803 364.28036924 1.46676469 364.97521109 C1.4842417 375.10781525 1.49327625 385.2404044 1.49761391 395.37302208 C1.5026299 406.93054389 1.51773642 418.48799787 1.54566566 430.04548796 C1.55957488 435.93250619 1.56889156 441.81942911 1.56500816 447.70646477 C1.33028358 492.25749289 1.33028358 492.25749289 9 536 C9.20995605 536.79132324 9.41991211 537.58264648 9.63623047 538.39794922 C15.57399749 560.51472995 24.91051995 580.85038353 39 599 C39.67546875 599.88042969 40.3509375 600.76085937 41.046875 601.66796875 C47.13009981 609.36080596 53.98037281 616.17566383 61 623 C57.06830895 623 55.83572772 621.60580385 53 619 C53 618.34 53 617.68 53 617 C52.34 617 51.68 617 51 617 C51 616.34 51 615.68 51 615 C50.34 615 49.68 615 49 615 C47.37890625 613.390625 47.37890625 613.390625 45.5625 611.25 C44.96566406 610.55390625 44.36882812 609.8578125 43.75390625 609.140625 C39 603.33853007 39 603.33853007 39 601 C38.01 600.67 37.02 600.34 36 600 C27.23079225 589.72828001 20.05757111 575.4423579 15 563 C14.58234375 562.01128906 14.1646875 561.02257812 13.734375 560.00390625 C10.75345925 552.66833947 8.6861614 545.31859456 6.89453125 537.62890625 C6.08387896 534.09139138 6.08387896 534.09139138 4.984375 531.10546875 C3.69319749 527.03211112 3.0625811 522.97012427 2.4375 518.75 C2.24897461 517.58597656 2.24897461 517.58597656 2.05664062 516.3984375 C-0.29035028 500.81736702 -0.14568121 484.95011122 -0.12025452 469.23312378 C-0.12069161 467.19643647 -0.12156906 465.15974921 -0.12284368 463.12306225 C-0.12506143 457.57695208 -0.12110497 452.03086152 -0.11606562 446.48475385 C-0.1117219 440.48501417 -0.11321031 434.48527548 -0.1139679 428.48553467 C-0.11449065 418.1073062 -0.11140503 407.72908361 -0.10573006 397.35085678 C-0.09979827 386.47491297 -0.09596114 375.59897169 -0.09487724 364.72302628 C-0.0948085 364.04495367 -0.09473976 363.36688106 -0.09466894 362.6682608 C-0.09433057 359.22420005 -0.0940292 355.78013929 -0.09374207 352.33607854 C-0.09164571 327.98788528 -0.08491972 303.63969531 -0.07543945 279.29150391 C-0.06624435 255.64827492 -0.05916597 232.00504683 -0.05493164 208.36181641 C-0.05480011 207.63209648 -0.05466859 206.90237655 -0.05453308 206.1505439 C-0.05321447 198.8219111 -0.05193867 191.4932783 -0.05069422 184.16464548 C-0.0481585 169.23745933 -0.04533725 154.31027323 -0.04234314 139.38308716 C-0.04220585 138.69686881 -0.04206856 138.01065045 -0.04192711 137.3036376 C-0.03273774 91.53575701 -0.01687297 45.76787833 0 0 Z " fill="#FEFEFE" transform="translate(90,263)"/>
<path d="M0 0 C2.21047795 -0.37259549 2.21047795 -0.37259549 5.02501106 -0.36914349 C6.09491221 -0.37511663 7.16481335 -0.38108978 8.26713574 -0.38724393 C9.45194023 -0.3785054 10.63674473 -0.36976688 11.85745239 -0.36076355 C13.10872826 -0.36332682 14.36000414 -0.3658901 15.64919746 -0.36853105 C19.13366358 -0.37526443 22.617855 -0.36320456 26.1022861 -0.34819686 C29.85552405 -0.33528159 33.6087456 -0.33962275 37.36199951 -0.34190369 C43.86850806 -0.34347929 50.3749266 -0.33404022 56.88141251 -0.31719017 C66.2887672 -0.29284347 75.69607822 -0.28499935 85.10346101 -0.2812262 C100.3650599 -0.2746549 115.62661078 -0.25467537 130.88818359 -0.22631836 C145.71630614 -0.19879532 160.54441567 -0.17755316 175.37255859 -0.16479492 C176.74280139 -0.16361267 176.74280139 -0.16361267 178.14072587 -0.16240653 C182.72331032 -0.15849151 187.30589486 -0.15470036 191.88847947 -0.15097082 C229.92568661 -0.11985379 267.96284014 -0.06699957 306 0 C306.33 0.66 306.66 1.32 307 2 C154.045 2.495 154.045 2.495 -2 3 C-1.34 2.01 -0.68 1.02 0 0 Z " fill="#EDEFEF" transform="translate(284,192)"/>
<path d="M0 0 C3.88593169 2.59062113 4.75972054 5.61697853 6 10 C6.62259703 16.66259682 7.10450409 23.37530922 3 29 C-0.5700664 31.38004427 -2.5885545 31.53776226 -6.77734375 31.44921875 C-9 31 -9 31 -11.9375 28.3125 C-15.80684539 22.09809679 -16.76149704 17.29865627 -16 10 C-12.94335297 1.74705301 -8.76322638 -1.58157677 0 0 Z " fill="#F1F2F2" transform="translate(360,354)"/>
<path d="M0 0 C0.33 0 0.66 0 1 0 C0.56142699 4.53192111 0.05607704 8.93128538 -0.9375 13.375 C-4.04142601 28.48693148 -4.2956534 43.82836301 -4.2784729 59.19084167 C-4.28348828 61.2613925 -4.28936766 63.33194138 -4.29602563 65.40248758 C-4.31168947 71.03755392 -4.31524873 76.67257022 -4.31667423 82.30765569 C-4.3203923 88.40487077 -4.33555956 94.50205916 -4.34928894 100.59925842 C-4.37149044 111.14498246 -4.38661547 121.69069953 -4.39665604 132.23644066 C-4.40720774 143.28740639 -4.42187192 154.3383543 -4.44193649 165.38930702 C-4.44318536 166.07840167 -4.44443423 166.76749631 -4.44572094 167.47747261 C-4.45208537 170.97754487 -4.45852238 174.47761699 -4.46498732 177.97768907 C-4.51055658 202.71908485 -4.54704408 227.46048642 -4.578125 252.2019043 C-4.60832616 276.22632699 -4.64268188 300.25073792 -4.68261719 324.27514648 C-4.68384819 325.01668733 -4.68507919 325.75822818 -4.6863475 326.52223996 C-4.69871517 333.96962047 -4.71116683 341.41700085 -4.72367998 348.86438112 C-4.74916504 364.03330997 -4.77408988 379.20223971 -4.79867554 394.37117004 C-4.79980645 395.06849502 -4.80093736 395.76581999 -4.80210253 396.48427603 C-4.87745969 442.98950377 -4.93971962 489.49475053 -5 536 C-5.33 536 -5.66 536 -6 536 C-6.06855057 488.23595974 -6.13222285 440.47191583 -6.16937256 392.70783997 C-6.16992479 391.99965005 -6.17047702 391.29146013 -6.17104598 390.56180991 C-6.18302074 375.16677968 -6.19410102 359.77174893 -6.20426132 344.3767174 C-6.20925017 336.82577047 -6.21443646 329.27482368 -6.21972656 321.72387695 C-6.2202496 320.97251189 -6.22077263 320.22114682 -6.22131152 319.44701312 C-6.23832276 295.14230338 -6.26834232 270.83763111 -6.30518888 246.53294402 C-6.34301974 221.53328984 -6.36756498 196.53365635 -6.37565996 171.53397403 C-6.37681239 167.99384898 -6.37811493 164.45372399 -6.37950897 160.91359901 C-6.37977866 160.21692844 -6.38004836 159.52025787 -6.38032622 158.80247607 C-6.38503247 147.63862263 -6.40352855 136.47483363 -6.42732814 125.31100635 C-6.45102052 114.05692453 -6.45951515 102.80290454 -6.45400551 91.54879262 C-6.45145829 85.46349832 -6.45520082 79.37839137 -6.4768219 73.29313087 C-6.68288138 12.26995867 -6.68288138 12.26995867 0 0 Z " fill="#84A39A" transform="translate(97,216)"/>
<path d="M0 0 C5.09134704 1.22894584 7.44265711 3.20341177 10.4375 7.4375 C12.36326277 13.01207643 12.94317718 18.74874838 10.60546875 24.29296875 C8.55118699 27.70022158 6.97811222 29.63959185 3.625 31.875 C-0.57036974 32.52761307 -2.05565215 32.08994567 -5.625 29.6875 C-10.09628052 25.11459946 -10.68158954 21.23810347 -10.75 14.9375 C-10.67178484 9.19169395 -10.39526082 6.01012542 -6.375 1.875 C-3.375 -0.125 -3.375 -0.125 0 0 Z " fill="#F2F3F3" transform="translate(654.375,353.125)"/>
<path d="M0 0 C3.81475619 0.03037226 4.56966449 0.23599138 7.75 2.6875 C11.89396807 8.2559571 11.33985797 14.69780778 10.75 21.375 C9.75284735 24.51768489 8.57826391 26.57883166 6.75 29.375 C3.52834396 30.98582802 0.23360411 30.9756214 -3.25 30.375 C-6.77199915 27.67729852 -8.50206589 25.69805918 -9.25 21.375 C-10.24025136 7.90108806 -10.24025136 7.90108806 -7.3125 3.5625 C-4.5338781 0.61547678 -4.03940801 0.1738818 0 0 Z " fill="#F3F4F4" transform="translate(598.25,353.625)"/>
<path d="M0 0 C0.33 0 0.66 0 1 0 C1.06993164 0.7842334 1.13986328 1.5684668 1.21191406 2.37646484 C2.58681065 17.47159155 3.98779281 32.34140927 8 47 C8.20995605 47.79132324 8.41991211 48.58264648 8.63623047 49.39794922 C14.57399749 71.51472995 23.91051995 91.85038353 38 110 C38.67546875 110.88042969 39.3509375 111.76085937 40.046875 112.66796875 C46.13009981 120.36080596 52.98037281 127.17566383 60 134 C56.06830895 134 54.83572772 132.60580385 52 130 C52 129.34 52 128.68 52 128 C51.34 128 50.68 128 50 128 C50 127.34 50 126.68 50 126 C49.34 126 48.68 126 48 126 C46.37890625 124.390625 46.37890625 124.390625 44.5625 122.25 C43.96566406 121.55390625 43.36882812 120.8578125 42.75390625 120.140625 C38 114.33853007 38 114.33853007 38 112 C37.01 111.67 36.02 111.34 35 111 C26.23079225 100.72828001 19.05757111 86.4423579 14 74 C13.37351562 72.51693359 13.37351562 72.51693359 12.734375 71.00390625 C9.75345925 63.66833947 7.6861614 56.31859456 5.89453125 48.62890625 C5.08282973 45.09133729 5.08282973 45.09133729 3.98828125 42.1015625 C2.69741628 38.05038942 2.01380751 34.01026127 1.375 29.8125 C1.24311279 28.94915039 1.11122559 28.08580078 0.9753418 27.19628906 C-0.29790662 18.11976446 -0.27926504 9.14334417 0 0 Z " fill="#F0F2F1" transform="translate(91,752)"/>
<path d="M0 0 C0.99 0.495 0.99 0.495 2 1 C1.00742188 1.59425781 0.01484375 2.18851562 -1.0078125 2.80078125 C-8.14038709 7.12944306 -15.06400882 11.58570875 -21.625 16.75 C-22.17945801 17.18481689 -22.73391602 17.61963379 -23.30517578 18.06762695 C-26.14040898 20.34398793 -28.74232874 22.71586152 -31.2734375 25.328125 C-34 28 -34 28 -36 28 C-36.23847656 28.56203125 -36.47695312 29.1240625 -36.72265625 29.703125 C-38.27941011 32.50242552 -40.20588506 34.45054397 -42.4375 36.75 C-54.44680905 49.76441717 -64.23940858 65.66190406 -71 82 C-72.76049003 76.71852992 -69.29887335 71.83194827 -67 67 C-65.47365844 64.22658441 -63.78453335 61.61306669 -62 59 C-61.2884375 57.92492187 -61.2884375 57.92492187 -60.5625 56.828125 C-59.56170746 55.31651127 -58.55517351 53.80868327 -57.54296875 52.3046875 C-56.49180601 50.73459633 -55.4531941 49.15604647 -54.42578125 47.5703125 C-51.87327236 43.64832151 -49.43745275 40.20828923 -46 37 C-45.29875 36.0925 -44.5975 35.185 -43.875 34.25 C-43.25625 33.5075 -42.6375 32.765 -42 32 C-41.34 32 -40.68 32 -40 32 C-39.7525 31.4225 -39.505 30.845 -39.25 30.25 C-37.81700012 27.67060021 -36.21575324 25.93878408 -34 24 C-33.34 24 -32.68 24 -32 24 C-31.79375 23.4225 -31.5875 22.845 -31.375 22.25 C-29.49800315 19.17855061 -27.00679355 17.94557229 -24 16 C-23.27683594 15.24074219 -22.55367187 14.48148438 -21.80859375 13.69921875 C-18.44053454 10.46232179 -14.85018998 8.16842159 -10.875 5.75 C-10.15957031 5.30398437 -9.44414062 4.85796875 -8.70703125 4.3984375 C-5.79170875 2.60020119 -3.26620337 1.08873446 0 0 Z " fill="#F0F2F1" transform="translate(177,113)"/>
<path d="M0 0 C0.33 0 0.66 0 1 0 C1.82873174 37.2008471 -8.89952315 78.79251734 -33 108 C-35.203125 109.76953125 -35.203125 109.76953125 -37 111 C-35.49479621 107.73321155 -33.61131443 104.75122049 -31.67553711 101.72485352 C-18.10220208 80.46157572 -8.27586305 58.01569563 -4 33 C-3.78802979 31.76443359 -3.78802979 31.76443359 -3.57177734 30.50390625 C-1.87423961 20.36821519 -0.54339509 10.26829337 0 0 Z " fill="#E8ECEB" transform="translate(932,753)"/>
<path d="M0 0 C1.65322266 0.01740234 1.65322266 0.01740234 3.33984375 0.03515625 C4.99693359 0.04869141 4.99693359 0.04869141 6.6875 0.0625 C7.54214844 0.07410156 8.39679688 0.08570313 9.27734375 0.09765625 C10.58899217 2.72095309 10.40997221 4.7346425 10.40234375 7.66015625 C10.40492188 8.65144531 10.4075 9.64273437 10.41015625 10.6640625 C10.27734375 13.09765625 10.27734375 13.09765625 9.27734375 14.09765625 C7.27934803 14.19639441 5.27777217 14.22737424 3.27734375 14.22265625 C2.18421875 14.22523438 1.09109375 14.2278125 -0.03515625 14.23046875 C-2.72265625 14.09765625 -2.72265625 14.09765625 -3.72265625 13.09765625 C-3.82139441 11.09966053 -3.85237424 9.09808467 -3.84765625 7.09765625 C-3.85023438 6.00453125 -3.8528125 4.91140625 -3.85546875 3.78515625 C-3.67583417 0.15019765 -3.64305585 0.13066915 0 0 Z " fill="#276150" transform="translate(315.72265625,380.90234375)"/>
<path d="M0 0 C2.99398886 0.79744769 5.99980815 1.50836663 9.01733398 2.20996094 C23.00089824 5.51931988 35.8474061 10.70239022 48.34765625 17.8125 C49.24581055 18.31426758 49.24581055 18.31426758 50.16210938 18.82617188 C53.81048288 20.90011037 57.0806676 23.16723738 60.28515625 25.875 C59.95515625 26.535 59.62515625 27.195 59.28515625 27.875 C58.81319824 27.57319824 58.34124023 27.27139648 57.85498047 26.96044922 C47.96169712 20.67256886 38.32399414 14.92529953 27.28515625 10.875 C26.53459961 10.59172852 25.78404297 10.30845703 25.01074219 10.01660156 C8.79724827 3.96640491 -7.57627287 0.92439535 -24.71484375 -1.125 C-24.71484375 -1.455 -24.71484375 -1.785 -24.71484375 -2.125 C-16.33926461 -4.1027754 -8.16923236 -2.19251656 0 0 Z " fill="#EFF2F1" transform="translate(803.71484375,97.125)"/>
<path d="M0 0 C2.875 1.6875 2.875 1.6875 5 4 C5.33 5.65 5.66 7.3 6 9 C-0.27 9 -6.54 9 -13 9 C-10.12806826 1.82017065 -8.08263204 -1.1344045 0 0 Z " fill="#F1F3F3" transform="translate(414,353)"/>
<path d="M0 0 C0.66 0 1.32 0 2 0 C3.40507507 1.42384338 3.40507507 1.42384338 5.0534668 3.42016602 C9.18857499 8.27949655 13.62897198 12.7730597 18.14453125 17.27734375 C18.99552902 18.12929825 19.84652679 18.98125275 20.72331238 19.85902405 C22.50791706 21.644305 24.29376824 23.42834072 26.08081055 25.21118164 C28.82522162 27.95019661 31.56420432 30.69455952 34.30273438 33.43945312 C36.04134577 35.17740442 37.78026695 36.91504586 39.51953125 38.65234375 C40.75072441 39.88657326 40.75072441 39.88657326 42.00679016 41.14573669 C42.76485458 41.90064896 43.52291901 42.65556122 44.30395508 43.43334961 C44.97123123 44.09983017 45.63850739 44.76631073 46.32600403 45.45298767 C47.93391172 47.08304372 47.93391172 47.08304372 50 48 C50 48.66 50 49.32 50 50 C50.99 50.33 51.98 50.66 53 51 C52.34 51.66 51.68 52.32 51 53 C44.34457135 46.39083332 37.69449954 39.77633741 31.05127716 33.1549015 C27.96666916 30.08074787 24.88022123 27.0084892 21.78955078 23.94042969 C18.80910303 20.98165148 15.83351272 18.01806889 12.86128235 15.05103683 C11.72427909 13.91773994 10.58551193 12.78620998 9.44499207 11.65645218 C7.85255599 10.07845277 6.26640683 8.49438806 4.68164062 6.90869141 C3.7756311 6.00712311 2.86962158 5.10555481 1.93615723 4.17666626 C0 2 0 2 0 0 Z " fill="#32755F" transform="translate(644,241)"/>
<path d="M0 0 C0.33 0 0.66 0 1 0 C1.125 2.375 1.125 2.375 1 5 C0.34 5.66 -0.32 6.32 -1 7 C-4.3 7 -7.6 7 -11 7 C-10.67 14.92 -10.34 22.84 -10 31 C-7.03 31.33 -4.06 31.66 -1 32 C-3 34 -3 34 -6.4375 34.375 C-10 34 -10 34 -11.7043457 32.34277344 C-13.32679769 29.40909165 -13.34411625 27.48226162 -13.29296875 24.140625 C-13.28330078 23.02558594 -13.27363281 21.91054688 -13.26367188 20.76171875 C-13.23853516 19.60285156 -13.21339844 18.44398438 -13.1875 17.25 C-13.17396484 16.07566406 -13.16042969 14.90132813 -13.14648438 13.69140625 C-13.11115106 10.79407483 -13.0573449 7.89697935 -13 5 C-7.06 4.505 -7.06 4.505 -1 4 C-0.67 2.68 -0.34 1.36 0 0 Z " fill="#FCFCFD" transform="translate(572,350)"/>
<path d="M0 0 C3.3 0 6.6 0 10 0 C9.67 2.97 9.34 5.94 9 9 C6.03 9 3.06 9 0 9 C0 6.03 0 3.06 0 0 Z " fill="#316958" transform="translate(314,383)"/>
<path d="M0 0 C0.33 0 0.66 0 1 0 C0.55995175 4.54716524 0.022786 8.93995336 -0.9375 13.40625 C-2.30240246 20.09166398 -2.94042523 26.84212144 -3.625 33.625 C-3.7590625 34.91535156 -3.893125 36.20570313 -4.03125 37.53515625 C-4.35838728 40.68969429 -4.68120276 43.8446101 -5 47 C-5.33 47 -5.66 47 -6 47 C-6.56681789 36.71855334 -5.63065055 26.9267056 -4.125 16.75 C-3.95129883 15.55979248 -3.77759766 14.36958496 -3.59863281 13.14331055 C-2.14708552 3.7773425 -2.14708552 3.7773425 0 0 Z " fill="#E7EAEA" transform="translate(97,216)"/>
<path d="M0 0 C1 2 1 2 0.28515625 4.328125 C-11.87125486 33.37922887 -11.87125486 33.37922887 -23 41 C-21.15977652 37.00610838 -18.73729027 33.38387828 -16.375 29.6875 C-10.30679704 20.09379163 -5.05032895 10.16243561 0 0 Z " fill="#F3F4F4" transform="translate(918,823)"/>
<path d="M0 0 C4.57766879 3.23129562 8.12965843 7.19636995 11 12 C11 12.99 11 13.98 11 15 C-3.19461883 16.38026906 -3.19461883 16.38026906 -7.62109375 12.99609375 C-9.32554709 10.73175761 -10.74977658 8.54077662 -12 6 C-11.67 5.34 -11.34 4.68 -11 4 C-9.99406757 5.1196986 -8.9954151 6.2459412 -8 7.375 C-7.1646875 8.31472656 -7.1646875 8.31472656 -6.3125 9.2734375 C-5 11 -5 11 -5 13 C1.435 12.505 1.435 12.505 8 12 C6.68 10.39125 5.36 8.7825 4 7.125 C0 2.25 0 2.25 0 0 Z " fill="#1F5B49" transform="translate(526,380)"/>
<path d="M0 0 C0.33 0.66 0.66 1.32 1 2 C0.32904297 2.76183594 0.32904297 2.76183594 -0.35546875 3.5390625 C-0.96003906 4.22742188 -1.56460938 4.91578125 -2.1875 5.625 C-2.83203125 6.35847656 -3.4765625 7.09195313 -4.140625 7.84765625 C-5.6130474 9.55207797 -7.0348584 11.3002067 -8.4375 13.0625 C-11.65840413 16.75475595 -15.25196838 19.85648961 -19 23 C-19.66 22.67 -20.32 22.34 -21 22 C-20.5059668 21.51120361 -20.01193359 21.02240723 -19.50292969 20.51879883 C-17.2492849 18.28604071 -14.99961783 16.04931513 -12.75 13.8125 C-11.97269531 13.04357422 -11.19539062 12.27464844 -10.39453125 11.48242188 C-6.70185547 7.80552676 -3.12266411 4.18873492 0 0 Z " fill="#E6ECE9" transform="translate(894,864)"/>
<path d="M0 0 C0.33 0 0.66 0 1 0 C1 7.92 1 15.84 1 24 C0.01 23.67 -0.98 23.34 -2 23 C-1.86183041 19.35383329 -1.71318466 15.70816926 -1.5625 12.0625 C-1.50352539 10.50112305 -1.50352539 10.50112305 -1.44335938 8.90820312 C-1.40146484 7.91884766 -1.35957031 6.92949219 -1.31640625 5.91015625 C-1.27974854 4.99371338 -1.24309082 4.07727051 -1.20532227 3.13305664 C-1 1 -1 1 0 0 Z " fill="#EBEDEC" transform="translate(364,321)"/>
<path d="M0 0 C2 1.8125 2 1.8125 4 4 C4 4.99 4 5.98 4 7 C-2.27 7 -8.54 7 -15 7 C-12 4 -12 4 -8.86328125 3.70703125 C-7.69152344 3.74183594 -6.51976562 3.77664063 -5.3125 3.8125 C-3.54326172 3.85310547 -3.54326172 3.85310547 -1.73828125 3.89453125 C-0.83464844 3.92933594 0.06898438 3.96414063 1 4 C0.67 2.68 0.34 1.36 0 0 Z " fill="#FAFAFA" transform="translate(416,355)"/>
<path d="M0 0 C0 0.33 0 0.66 0 1 C-2.64 1 -5.28 1 -8 1 C-8.33 3.31 -8.66 5.62 -9 8 C-9.33 8 -9.66 8 -10 8 C-10 6.35 -10 4.7 -10 3 C-10.66 3 -11.32 3 -12 3 C-12 2.01 -12 1.02 -12 0 C-16.95 0 -21.9 0 -27 0 C-27 -0.33 -27 -0.66 -27 -1 C-17.62509392 -2.04009453 -9.25454457 -1.86013271 0 0 Z " fill="#E7ECEB" transform="translate(546,344)"/>
<path d="M0 0 C0.66 0.33 1.32 0.66 2 1 C0.04709472 2.83943372 -1.91181918 4.67159131 -3.875 6.5 C-4.70837891 7.28697266 -4.70837891 7.28697266 -5.55859375 8.08984375 C-9.7734375 12 -9.7734375 12 -12 12 C-12.28875 12.639375 -12.5775 13.27875 -12.875 13.9375 C-14 16 -14 16 -16 17 C-15.52794881 12.75153925 -13.11122478 10.73180712 -10 8 C-9.34 8 -8.68 8 -8 8 C-7.79375 7.4225 -7.5875 6.845 -7.375 6.25 C-5.50249112 3.18589456 -3.03041481 1.84460032 0 0 Z " fill="#EBEEED" transform="translate(153,129)"/>
<path d="M0 0 C0.33 0 0.66 0 1 0 C0.3622098 7.52592433 -1.19889833 14.67098882 -3 22 C-3.33 22 -3.66 22 -4 22 C-4.33065766 14.56020258 -3.67648254 6.59604221 0 0 Z " fill="#F2F4F3" transform="translate(97,216)"/>
<path d="M0 0 C0.95261719 0.09023437 1.90523437 0.18046875 2.88671875 0.2734375 C5.3125 0.625 5.3125 0.625 7.3125 1.625 C7.3125 2.285 7.3125 2.945 7.3125 3.625 C1.3725 2.965 -4.5675 2.305 -10.6875 1.625 C-10.6875 1.295 -10.6875 0.965 -10.6875 0.625 C-6.95035788 -0.28716219 -3.82134903 -0.38578421 0 0 Z " fill="#E6EBE9" transform="translate(789.6875,94.375)"/>
<path d="M0 0 C0.33 0.99 0.66 1.98 1 3 C0.401875 3.53625 -0.19625 4.0725 -0.8125 4.625 C-3.21315594 7.23142645 -4.54018514 9.7884073 -6 13 C-6.66 12.34 -7.32 11.68 -8 11 C-6.12344231 5.8641579 -4.67025461 3.15557744 0 0 Z " fill="#EAEEED" transform="translate(339,345)"/>
<path d="M0 0 C0.99 0.33 1.98 0.66 3 1 C3.13277344 1.74765625 3.26554688 2.4953125 3.40234375 3.265625 C3.57894531 4.25046875 3.75554688 5.2353125 3.9375 6.25 C4.19853516 7.71179688 4.19853516 7.71179688 4.46484375 9.203125 C4.93296126 11.92948023 4.93296126 11.92948023 5.69140625 14.234375 C5.79324219 14.81703125 5.89507813 15.3996875 6 16 C5.34 16.66 4.68 17.32 4 18 C2.68 12.06 1.36 6.12 0 0 Z " fill="#E9EDEB" transform="translate(924,211)"/>
<path d="M0 0 C0.33 0.66 0.66 1.32 1 2 C-4 8.57142857 -4 8.57142857 -9 10 C-8.06409496 8.8944811 -7.12620142 7.79064547 -6.1875 6.6875 C-5.66542969 6.07261719 -5.14335937 5.45773438 -4.60546875 4.82421875 C-3.12827531 3.14575321 -1.59960869 1.56117966 0 0 Z " fill="#236D55" transform="translate(143,140)"/>
<path d="M0 0 C5.17930997 1.24303439 8.70166639 2.85487785 13 6 C10 7 10 7 7.51953125 6.00390625 C6.62621094 5.52824219 5.73289062 5.05257812 4.8125 4.5625 C3.91144531 4.08941406 3.01039063 3.61632812 2.08203125 3.12890625 C1.39496094 2.75636719 0.70789063 2.38382812 0 2 C0 1.34 0 0.68 0 0 Z " fill="#F9F8F8" transform="translate(837,108)"/>
<path d="M0 0 C0.66 0 1.32 0 2 0 C2.99 4.29 3.98 8.58 5 13 C4.34 13 3.68 13 3 13 C2.49242138 11.58603098 1.99425075 10.16868271 1.5 8.75 C1.08234375 7.56664062 1.08234375 7.56664062 0.65625 6.359375 C0 4 0 4 0 0 Z " fill="#E4E9E7" transform="translate(95,792)"/>
<path d="M0 0 C-0.99 0.66 -1.98 1.32 -3 2 C-3 1.34 -3 0.68 -3 0 C-7.95 0 -12.9 0 -18 0 C-18 -0.33 -18 -0.66 -18 -1 C-15.75135275 -1.22245975 -13.50097377 -1.42746557 -11.25 -1.625 C-9.37054687 -1.79902344 -9.37054687 -1.79902344 -7.453125 -1.9765625 C-4.16413097 -1.99888599 -2.68979224 -1.77961002 0 0 Z " fill="#BBCBC7" transform="translate(537,344)"/>
<path d="M0 0 C-0.66 1.32 -1.32 2.64 -2 4 C-2.66 4 -3.32 4 -4 4 C-4.28875 4.639375 -4.5775 5.27875 -4.875 5.9375 C-6 8 -6 8 -8 9 C-7.53918323 4.85264908 -4.48412936 0 0 0 Z " fill="#DEE5E3" transform="translate(145,137)"/>
<path d="M0 0 C0.33 0.66 0.66 1.32 1 2 C-0.98 4.31 -2.96 6.62 -5 9 C-5.66 8.67 -6.32 8.34 -7 8 C-4.69 5.36 -2.38 2.72 0 0 Z " fill="#F5F6F6" transform="translate(894,864)"/>
<path d="M0 0 C0.66 0.33 1.32 0.66 2 1 C0.515 4.96 0.515 4.96 -1 9 C-1.33 9 -1.66 9 -2 9 C-1.125 2.25 -1.125 2.25 0 0 Z " fill="#E7ECEB" transform="translate(646,357)"/>
</svg>
